<?xml version="1.0" encoding="UTF-8" standalone="no"?><svg xmlns="http://www.w3.org/2000/svg" xmlns:xlink="http://www.w3.org/1999/xlink" contentScriptType="application/ecmascript" contentStyleType="text/css" height="481px" preserveAspectRatio="none" style="width:340px;height:481px;" version="1.1" viewBox="0 0 340 481" width="340px" zoomAndPan="magnify"><defs><filter height="300%" id="f15b2xj9i1tvw9" width="300%" x="-1" y="-1"><feGaussianBlur result="blurOut" stdDeviation="2.0"/><feColorMatrix in="blurOut" result="blurOut2" type="matrix" values="0 0 0 0 0 0 0 0 0 0 0 0 0 0 0 0 0 0 .4 0"/><feOffset dx="4.0" dy="4.0" in="blurOut2" result="blurOut3"/><feBlend in="SourceGraphic" in2="blurOut3" mode="normal"/></filter></defs><g><text fill="#000000" font-family="sans-serif" font-size="18" lengthAdjust="spacingAndGlyphs" textLength="119" x="114" y="20.6279">Simple Factory</text><!--class Product--><rect fill="#FEFECE" filter="url(#f15b2xj9i1tvw9)" height="63.0229" id="Product" style="stroke: #A80036; stroke-width: 1.5;" width="81" x="126.5" y="32.583"/><ellipse cx="141.5" cy="48.583" fill="#B4A7E5" rx="11" ry="11" style="stroke: #A80036; stroke-width: 1.0;"/><path d="M138.0938,42.8643 L138.0938,42.458 L144.4063,42.458 L144.4063,42.8643 L141.875,42.8643 Q141.875,42.8643 142.0234,42.9971 Q142.1719,43.1299 142.1719,43.3955 L142.1719,52.8799 Q142.1719,53.1455 142.3906,53.2783 Q142.6094,53.4111 142.6094,53.4111 L144.4063,53.4111 L144.4063,53.8174 L138.0938,53.8174 L138.0938,53.4111 L139.625,53.4111 Q139.9531,53.4111 140.0859,53.2783 Q140.2188,53.1455 140.2188,52.8799 L140.2188,43.3955 Q140.2188,43.1299 140.0859,42.9971 Q139.9531,42.8643 139.625,42.8643 L138.0938,42.8643 Z "/><text fill="#000000" font-family="Consolas" font-size="12" font-style="italic" lengthAdjust="spacingAndGlyphs" textLength="49" x="155.5" y="53.5459">Product</text><line style="stroke: #A80036; stroke-width: 1.5;" x1="127.5" x2="206.5" y1="64.583" y2="64.583"/><line style="stroke: #A80036; stroke-width: 1.5;" x1="127.5" x2="206.5" y1="72.583" y2="72.583"/><text fill="#000000" font-family="sans-serif" font-size="11" lengthAdjust="spacingAndGlyphs" textLength="26" x="132.5" y="89.189">use()</text><!--class ConcreteProductA--><rect fill="#FEFECE" filter="url(#f15b2xj9i1tvw9)" height="63.0229" id="ConcreteProductA" style="stroke: #A80036; stroke-width: 1.5;" width="144" x="6" y="156.583"/><ellipse cx="21" cy="172.583" fill="#ADD1B2" rx="11" ry="11" style="stroke: #A80036; stroke-width: 1.0;"/><path d="M19.5781,177.9424 Q17.7188,177.9424 16.625,176.5518 Q15.5313,175.1611 15.5313,172.1768 Q15.5313,169.6455 16.6953,167.9893 Q17.8594,166.333 19.8438,166.333 Q21.3125,166.333 21.7813,166.458 Q22.25,166.6611 22.25,166.6611 Q22.25,166.6611 22.25,166.5908 Q22.25,166.5205 22.8594,165.5986 L23.9063,169.2549 L22.5781,169.6611 Q22.1094,168.1143 21.4453,167.4502 Q20.7813,166.7861 19.7188,166.7861 Q19.3281,166.7861 18.5625,168.3174 Q17.7969,169.8486 17.7969,172.0986 Q17.7969,174.5674 18.4609,175.958 Q19.125,177.3486 19.6563,177.3486 Q20.7188,177.3486 21.4766,176.583 Q22.2344,175.8174 22.5781,174.1611 L23.9063,174.7549 Q23.5781,176.1611 22.6797,177.0518 Q21.7813,177.9424 19.5781,177.9424 Z "/><text fill="#000000" font-family="Consolas" font-size="12" lengthAdjust="spacingAndGlyphs" textLength="112" x="35" y="177.5459">ConcreteProductA</text><line style="stroke: #A80036; stroke-width: 1.5;" x1="7" x2="149" y1="188.583" y2="188.583"/><line style="stroke: #A80036; stroke-width: 1.5;" x1="7" x2="149" y1="196.583" y2="196.583"/><text fill="#000000" font-family="sans-serif" font-size="11" lengthAdjust="spacingAndGlyphs" textLength="26" x="12" y="213.189">use()</text><!--class ConcreteProductB--><rect fill="#FEFECE" filter="url(#f15b2xj9i1tvw9)" height="63.0229" id="ConcreteProductB" style="stroke: #A80036; stroke-width: 1.5;" width="144" x="185" y="156.583"/><ellipse cx="200" cy="172.583" fill="#ADD1B2" rx="11" ry="11" style="stroke: #A80036; stroke-width: 1.0;"/><path d="M198.5781,177.9424 Q196.7188,177.9424 195.625,176.5518 Q194.5313,175.1611 194.5313,172.1768 Q194.5313,169.6455 195.6953,167.9893 Q196.8594,166.333 198.8438,166.333 Q200.3125,166.333 200.7813,166.458 Q201.25,166.6611 201.25,166.6611 Q201.25,166.6611 201.25,166.5908 Q201.25,166.5205 201.8594,165.5986 L202.9063,169.2549 L201.5781,169.6611 Q201.1094,168.1143 200.4453,167.4502 Q199.7813,166.7861 198.7188,166.7861 Q198.3281,166.7861 197.5625,168.3174 Q196.7969,169.8486 196.7969,172.0986 Q196.7969,174.5674 197.4609,175.958 Q198.125,177.3486 198.6563,177.3486 Q199.7188,177.3486 200.4766,176.583 Q201.2344,175.8174 201.5781,174.1611 L202.9063,174.7549 Q202.5781,176.1611 201.6797,177.0518 Q200.7813,177.9424 198.5781,177.9424 Z "/><text fill="#000000" font-family="Consolas" font-size="12" lengthAdjust="spacingAndGlyphs" textLength="112" x="214" y="177.5459">ConcreteProductB</text><line style="stroke: #A80036; stroke-width: 1.5;" x1="186" x2="328" y1="188.583" y2="188.583"/><line style="stroke: #A80036; stroke-width: 1.5;" x1="186" x2="328" y1="196.583" y2="196.583"/><text fill="#000000" font-family="sans-serif" font-size="11" lengthAdjust="spacingAndGlyphs" textLength="26" x="191" y="213.189">use()</text><!--class Factory--><rect fill="#FEFECE" filter="url(#f15b2xj9i1tvw9)" height="63.0229" id="Factory" style="stroke: #A80036; stroke-width: 1.5;" width="88" x="123" y="298.583"/><ellipse cx="141.15" cy="314.583" fill="#ADD1B2" rx="11" ry="11" style="stroke: #A80036; stroke-width: 1.0;"/><path d="M139.7281,319.9424 Q137.8688,319.9424 136.775,318.5518 Q135.6813,317.1611 135.6813,314.1768 Q135.6813,311.6455 136.8453,309.9893 Q138.0094,308.333 139.9938,308.333 Q141.4625,308.333 141.9313,308.458 Q142.4,308.6611 142.4,308.6611 Q142.4,308.6611 142.4,308.5908 Q142.4,308.5205 143.0094,307.5986 L144.0563,311.2549 L142.7281,311.6611 Q142.2594,310.1143 141.5953,309.4502 Q140.9313,308.7861 139.8688,308.7861 Q139.4781,308.7861 138.7125,310.3174 Q137.9469,311.8486 137.9469,314.0986 Q137.9469,316.5674 138.6109,317.958 Q139.275,319.3486 139.8063,319.3486 Q140.8688,319.3486 141.6266,318.583 Q142.3844,317.8174 142.7281,316.1611 L144.0563,316.7549 Q143.7281,318.1611 142.8297,319.0518 Q141.9313,319.9424 139.7281,319.9424 Z "/><text fill="#000000" font-family="Consolas" font-size="12" lengthAdjust="spacingAndGlyphs" textLength="49" x="155.85" y="319.5459">Factory</text><line style="stroke: #A80036; stroke-width: 1.5;" x1="124" x2="210" y1="330.583" y2="330.583"/><line style="stroke: #A80036; stroke-width: 1.5;" x1="124" x2="210" y1="338.583" y2="338.583"/><text fill="#000000" font-family="sans-serif" font-size="11" lengthAdjust="spacingAndGlyphs" textLength="76" x="129" y="355.189">createProduct()</text><!--class Client--><rect fill="#FEFECE" filter="url(#f15b2xj9i1tvw9)" height="48" id="Client" style="stroke: #A80036; stroke-width: 1.5;" width="74" x="130" y="422.583"/><ellipse cx="145" cy="438.583" fill="#ADD1B2" rx="11" ry="11" style="stroke: #A80036; stroke-width: 1.0;"/><path d="M143.5781,443.9424 Q141.7188,443.9424 140.625,442.5518 Q139.5313,441.1611 139.5313,438.1768 Q139.5313,435.6455 140.6953,433.9893 Q141.8594,432.333 143.8438,432.333 Q145.3125,432.333 145.7813,432.458 Q146.25,432.6611 146.25,432.6611 Q146.25,432.6611 146.25,432.5908 Q146.25,432.5205 146.8594,431.5986 L147.9063,435.2549 L146.5781,435.6611 Q146.1094,434.1143 145.4453,433.4502 Q144.7813,432.7861 143.7188,432.7861 Q143.3281,432.7861 142.5625,434.3174 Q141.7969,435.8486 141.7969,438.0986 Q141.7969,440.5674 142.4609,441.958 Q143.125,443.3486 143.6563,443.3486 Q144.7188,443.3486 145.4766,442.583 Q146.2344,441.8174 146.5781,440.1611 L147.9063,440.7549 Q147.5781,442.1611 146.6797,443.0518 Q145.7813,443.9424 143.5781,443.9424 Z "/><text fill="#000000" font-family="Consolas" font-size="12" lengthAdjust="spacingAndGlyphs" textLength="42" x="159" y="443.5459">Client</text><line style="stroke: #A80036; stroke-width: 1.5;" x1="131" x2="203" y1="454.583" y2="454.583"/><line style="stroke: #A80036; stroke-width: 1.5;" x1="131" x2="203" y1="462.583" y2="462.583"/><!--reverse link Product to ConcreteProductA--><path d="M132.461,112.429 C121.713,127.162 110.148,143.016 100.4513,156.307 " fill="none" id="Product&lt;-ConcreteProductA" style="stroke: #A80036; stroke-width: 1.0; stroke-dasharray: 7.0,7.0;"/><polygon fill="none" points="127.099,107.901,144.542,95.869,138.41,116.152,127.099,107.901" style="stroke: #A80036; stroke-width: 1.0;"/><!--reverse link Product to ConcreteProductB--><path d="M201.927,112.429 C212.796,127.162 224.491,143.016 234.296,156.307 " fill="none" id="Product&lt;-ConcreteProductB" style="stroke: #A80036; stroke-width: 1.0; stroke-dasharray: 7.0,7.0;"/><polygon fill="none" points="195.951,116.119,189.711,95.869,207.217,107.808,195.951,116.119" style="stroke: #A80036; stroke-width: 1.0;"/><!--reverse link ConcreteProductA to Factory--><path d="M97.4552,224.329 C105.4012,238.285 114.86,254.362 124,268.583 C130.34,278.448 137.606,288.944 144.339,298.376 " fill="none" id="ConcreteProductA&lt;-Factory" style="stroke: #A80036; stroke-width: 1.0; stroke-dasharray: 7.0,7.0;"/><polygon fill="#A80036" points="94.8211,219.683,95.7796,229.4851,97.2868,224.0327,102.7392,225.54,94.8211,219.683" style="stroke: #A80036; stroke-width: 1.0;"/><text fill="#000000" font-family="sans-serif" font-size="13" lengthAdjust="spacingAndGlyphs" textLength="36" x="125" y="265.481">create</text><!--reverse link ConcreteProductB to Factory--><path d="M222.029,223.736 C214.879,231.823 207.783,240.684 202,249.583 C192.139,264.757 183.833,283.174 177.79,298.459 " fill="none" id="ConcreteProductB&lt;-Factory" style="stroke: #A80036; stroke-width: 1.0; stroke-dasharray: 7.0,7.0;"/><polygon fill="#A80036" points="225.537,219.831,216.5471,223.8536,222.1958,223.5507,222.4986,229.1995,225.537,219.831" style="stroke: #A80036; stroke-width: 1.0;"/><text fill="#000000" font-family="sans-serif" font-size="13" lengthAdjust="spacingAndGlyphs" textLength="36" x="203" y="265.481">create</text><!--reverse link ConcreteProductA to Client--><path d="M78.6708,225.019 C80.4631,260.881 86.3532,316.926 105,361.583 C114.498,384.3303 131.403,406.6156 145.164,422.5099 " fill="none" id="ConcreteProductA&lt;-Client" style="stroke: #A80036; stroke-width: 1.0; stroke-dasharray: 7.0,7.0;"/><polygon fill="#A80036" points="78.4351,219.878,74.8533,229.0525,78.6651,224.8727,82.8449,228.6845,78.4351,219.878" style="stroke: #A80036; stroke-width: 1.0;"/><!--reverse link ConcreteProductB to Client--><path d="M256.072,225.024 C254.034,260.89 247.79,316.939 229,361.583 C219.437,384.3034 202.537,406.5904 188.794,422.4922 " fill="none" id="ConcreteProductB&lt;-Client" style="stroke: #A80036; stroke-width: 1.0; stroke-dasharray: 7.0,7.0;"/><polygon fill="#A80036" points="256.343,219.882,251.8729,228.658,256.0787,224.875,259.8617,229.0809,256.343,219.882" style="stroke: #A80036; stroke-width: 1.0;"/><!--reverse link Factory to Client--><path d="M167,366.79 C167,384.9438 167,406.481 167,422.4467 " fill="none" id="Factory&lt;-Client" style="stroke: #A80036; stroke-width: 1.0; stroke-dasharray: 7.0,7.0;"/><polygon fill="#A80036" points="167,361.767,163,370.767,167,366.767,171,370.767,167,361.767" style="stroke: #A80036; stroke-width: 1.0;"/><!--
@startuml
skinparam classFontName Consolas
title Simple Factory

interface Product {
    use()
}

class ConcreteProductA {
    use()
}

class ConcreteProductB {
    use()
}

class Factory {
    createProduct()
}

class Client {

}

Product <|.. ConcreteProductA
Product <|.. ConcreteProductB
ConcreteProductA <.. Factory : create
ConcreteProductB <.. Factory : create
ConcreteProductA <.. Client
ConcreteProductB <.. Client
Factory <.. Client

@enduml

PlantUML version 1.2019.09(Tue Aug 27 00:19:51 CST 2019)
(GPL source distribution)
Java Runtime: Java(TM) SE Runtime Environment
JVM: Java HotSpot(TM) 64-Bit Server VM
Java Version: 1.8.0_181-b13
Operating System: Windows 10
OS Version: 10.0
Default Encoding: GBK
Language: zh
Country: CN
--></g></svg>